<?xml version="1.0" encoding="utf-8"?>
<!-- Generator: Adobe Illustrator 18.1.1, SVG Export Plug-In . SVG Version: 6.00 Build 0)  -->
<svg version="1.1" id="Layer_1" xmlns="http://www.w3.org/2000/svg" xmlns:xlink="http://www.w3.org/1999/xlink" x="0px" y="0px"
	 viewBox="0 17 102 83" enable-background="new 0 17 102 83" xml:space="preserve">
<g>
	<g>
		<g>
			<defs>
				<rect id="SVGID_1_" x="8.3" y="24.4" width="88.2" height="71.6"/>
			</defs>
			<clipPath id="SVGID_2_">
				<use xlink:href="#SVGID_1_"  overflow="visible"/>
			</clipPath>
			<path clip-path="url(#SVGID_2_)" fill="#FFFFFF" d="M33.7,83.8c-1.8,3.7-5.4,6-9.5,6c-1.6,0-3.2-0.4-4.6-1.1
				c-2.6-1.2-4.4-3.3-5.4-6.1c-0.9-2.6-0.7-5.6,0.5-8.1l9.6-19.8L43.4,64L33.7,83.8z M57.4,47.4L57.4,47.4c0-0.2,0.2-0.2,0.2-0.2
				c3.9-7.9,0.5-17.5-7.4-21.2c-0.5-0.2-0.9-0.4-1.4-0.5c-0.2,0-0.2-0.2-0.2-0.2c-0.5-0.2-0.9-0.4-1.4-0.4c-0.2,0-0.2,0-0.4-0.2
				c-0.5-0.2-0.9-0.2-1.4-0.4c-0.2,0-0.2,0-0.2,0c-0.5-0.2-0.9-0.2-1.4-0.2h-0.2c-0.4,0-0.5,0-0.7,0c-0.2,0-0.4,0-0.5,0
				c-0.2,0-0.4,0-0.4,0c-0.5,0-0.9,0.2-1.4,0.2c-0.2,0-0.2,0-0.2,0c-0.4,0.2-0.7,0.2-1.2,0.2c-0.2,0-0.4,0.2-0.4,0.2
				c-0.4,0.2-0.7,0.2-1.1,0.4c-0.2,0-0.2,0.2-0.4,0.2c-0.4,0.2-0.9,0.4-1.2,0.5c-0.2,0-0.2,0.2-0.4,0.2c-0.4,0.2-0.7,0.4-0.9,0.5
				c-0.2,0.2-0.4,0.2-0.4,0.4c-0.4,0.2-0.7,0.5-1.2,0.7c0,0,0,0-0.2,0.2c-0.4,0.4-0.7,0.5-1.1,0.7c-0.2,0.2-0.2,0.2-0.4,0.4
				c-0.4,0.4-0.5,0.5-0.7,0.7c-0.2,0.2-0.2,0.2-0.2,0.2c-0.4,0.4-0.5,0.7-0.9,1.1C30,30.9,30,30.9,30,31c-0.2,0.4-0.5,0.5-0.7,0.9
				c-0.2,0.2-0.2,0.2-0.2,0.4c-0.4,0.4-0.5,0.9-0.7,1.2c0,0.2,0,0.2-0.2,0.2l0,0L10,72.1C6.2,80,9.5,89.6,17.4,93.3
				c2.3,1.1,4.6,1.6,7,1.6c6,0,11.6-3.3,14.4-8.9l9.6-19.8L57.4,47.4z"/>
		</g>
	</g>
	<g>
		<g>
			<defs>
				<rect id="SVGID_3_" x="8.3" y="24.4" width="88.2" height="71.6"/>
			</defs>
			<clipPath id="SVGID_4_">
				<use xlink:href="#SVGID_3_"  overflow="visible"/>
			</clipPath>
			<path clip-path="url(#SVGID_4_)" fill="#14A4D3" d="M74.6,52.1c-12.1,0-21.9,9.8-21.9,21.9c0,5.1,1.8,9.8,4.7,13.7L88.1,57
				C84.4,53.8,79.8,52.1,74.6,52.1"/>
		</g>
	</g>
	<g>
		<g>
			<defs>
				<rect id="SVGID_5_" x="8.3" y="24.4" width="88.2" height="71.6"/>
			</defs>
			<clipPath id="SVGID_6_">
				<use xlink:href="#SVGID_5_"  overflow="visible"/>
			</clipPath>
			<path clip-path="url(#SVGID_6_)" fill="#FFFFFF" d="M91.8,60.3L61.1,91c3.7,3,8.4,4.7,13.7,4.7c12.1,0,21.9-9.8,21.9-21.9
				C96.5,68.9,94.8,64.2,91.8,60.3"/>
		</g>
	</g>
</g>
</svg>
