<?xml version="1.0" encoding="utf-8"?>
<!-- Generator: Adobe Illustrator 18.1.1, SVG Export Plug-In . SVG Version: 6.00 Build 0)  -->
<svg version="1.1" id="Layer_1" xmlns="http://www.w3.org/2000/svg" xmlns:xlink="http://www.w3.org/1999/xlink" x="0px" y="0px"
	 viewBox="140 0 60 100" enable-background="new 140 0 60 100" xml:space="preserve">
<g>
	<rect x="158.8" y="18.3" fill="#006286" width="23.6" height="9.9"/>
	<path fill="#14A4D3" d="M145.9,49.4l12.9-25.1h23.6l13,25.2v38.3c0,4.4-3.6,8-8,8h-33.3c-4.4,0-8-3.6-8-8L145.9,49.4z"/>
	<path fill="#006286" d="M170.4,24.3v71.5h-16.3c-4.4,0-8-3.6-8-8L146,49.4l12.9-25.1H170.4z"/>
	<rect x="145.3" y="10.1" fill="none" width="51.2" height="85.7"/>
	<rect x="145.3" y="50.5" fill="#E1F4FD" width="51.2" height="31.5"/>
	<rect x="145.3" y="50.5" fill="#9CCAE0" width="25" height="31.5"/>
	<rect x="156.2" y="10.1" fill="#14A4D3" width="28.5" height="11.7"/>
	<rect x="181.5" y="10.1" fill="#14A4D3" width="1.6" height="11.7"/>
	<rect x="178.8" y="10.1" fill="#14A4D3" width="1.6" height="11.7"/>
	<rect x="176.1" y="10.1" fill="#14A4D3" width="1.6" height="11.7"/>
	<rect x="173.4" y="10.1" fill="#14A4D3" width="1.6" height="11.7"/>
	<rect x="170.9" y="10.1" fill="#14A4D3" width="1.6" height="11.7"/>
	<rect x="168.1" y="10.1" fill="#14A4D3" width="1.6" height="11.7"/>
	<rect x="165.4" y="10.1" fill="#14A4D3" width="1.6" height="11.7"/>
	<rect x="162.7" y="10.1" fill="#14A4D3" width="1.6" height="11.7"/>
	<rect x="160.1" y="10.1" fill="#14A4D3" width="1.6" height="11.7"/>
	<rect x="157.4" y="10.1" fill="#14A4D3" width="1.6" height="11.7"/>
</g>
</svg>
