<?xml version="1.0" encoding="utf-8"?>
<!-- Generator: Adobe Illustrator 18.1.1, SVG Export Plug-In . SVG Version: 6.00 Build 0)  -->
<svg version="1.1" id="Layer_1" xmlns="http://www.w3.org/2000/svg" xmlns:xlink="http://www.w3.org/1999/xlink" x="0px" y="0px"
	 viewBox="141 0 59 100" enable-background="new 141 0 59 100" xml:space="preserve">
<g>
	<g>
		<g>
			<g>
				<defs>
					<rect id="SVGID_1_" x="146.3" y="7.8" width="47.8" height="88.7"/>
				</defs>
				<clipPath id="SVGID_2_">
					<use xlink:href="#SVGID_1_"  overflow="visible"/>
				</clipPath>
				<path clip-path="url(#SVGID_2_)" fill="#F15A30" d="M178.2,20c0,0,15.3,0.4,15.3,13.1v51c0,0,1.9,12.4-14.5,12.4h-17.6
					c-16.2,0-14.5-12.4-14.5-12.4v-51c0-12.7,15.3-13.1,15.3-13.1L178.2,20L178.2,20z"/>
			</g>
		</g>
	</g>
	<g>
		<g>
			<g>
				<defs>
					<rect id="SVGID_3_" x="146.3" y="7.8" width="47.8" height="88.7"/>
				</defs>
				<clipPath id="SVGID_4_">
					<use xlink:href="#SVGID_3_"  overflow="visible"/>
				</clipPath>
				<path clip-path="url(#SVGID_4_)" fill="#F2663F" d="M193.6,84.1v-51c0-12.7-15.3-13.1-15.3-13.1h-8.6v76.5h9.5
					C195.5,96.5,193.6,84.1,193.6,84.1"/>
			</g>
		</g>
	</g>
</g>
<rect x="146.3" y="43.1" fill="#E1F4FD" width="47.8" height="33"/>
<rect x="169.7" y="43.1" fill="#9CCAE0" width="24.5" height="33"/>
<rect x="152.7" y="7.9" fill="#006286" width="35.1" height="14.4"/>
<rect x="152.7" y="7.9" fill="#9CCAE0" width="35.1" height="7.3"/>
<rect x="154.5" y="7.8" fill="#006286" width="2" height="14.4"/>
<rect x="157.9" y="7.8" fill="#006286" width="2" height="14.4"/>
<rect x="161.2" y="7.8" fill="#006286" width="2" height="14.4"/>
<rect x="164.5" y="7.8" fill="#006286" width="2" height="14.4"/>
<rect x="167.8" y="7.8" fill="#006286" width="2" height="14.4"/>
<rect x="171.1" y="7.8" fill="#006286" width="2" height="14.4"/>
<rect x="174.4" y="7.8" fill="#006286" width="2" height="14.4"/>
<rect x="177.7" y="7.8" fill="#006286" width="2" height="14.4"/>
<rect x="181" y="7.8" fill="#006286" width="2" height="14.4"/>
<rect x="184.3" y="7.8" fill="#006286" width="2" height="14.4"/>
</svg>
