<?xml version="1.0" encoding="utf-8"?>
<!-- Generator: Adobe Illustrator 18.1.1, SVG Export Plug-In . SVG Version: 6.00 Build 0)  -->
<svg version="1.1" id="Layer_1" xmlns="http://www.w3.org/2000/svg" xmlns:xlink="http://www.w3.org/1999/xlink" x="0px" y="0px"
	 viewBox="148 0 52 100" enable-background="new 148 0 52 100" xml:space="preserve">
<rect x="166.5" y="9" fill="#89CB94" width="14.8" height="10"/>
<rect x="165.1" y="6.2" fill="#89CB94" width="17.3" height="9.1"/>
<g>
	<g>
		<g>
			<defs>
				<rect id="SVGID_1_" x="153.2" y="6.2" width="41.2" height="90.2"/>
			</defs>
			<clipPath id="SVGID_2_">
				<use xlink:href="#SVGID_1_"  overflow="visible"/>
			</clipPath>
			<path clip-path="url(#SVGID_2_)" fill="#89CB94" d="M183.4,7.9c0,0.6-0.5,1.1-1.1,1.1h-17.1c-0.6,0-1.1-0.5-1.1-1.1
				s0.5-1.1,1.1-1.1h17.1C182.9,6.8,183.4,7.3,183.4,7.9"/>
		</g>
	</g>
	<g>
		<g>
			<defs>
				<rect id="SVGID_3_" x="153.2" y="6.2" width="41.2" height="90.2"/>
			</defs>
			<clipPath id="SVGID_4_">
				<use xlink:href="#SVGID_3_"  overflow="visible"/>
			</clipPath>
			<path clip-path="url(#SVGID_4_)" fill="#89CB94" d="M183.4,13.4c0,0.6-0.5,1.1-1.1,1.1h-17.1c-0.6,0-1.1-0.5-1.1-1.1
				s0.5-1.1,1.1-1.1h17.1C182.9,12.3,183.4,12.8,183.4,13.4"/>
		</g>
	</g>
	<g>
		<g>
			<defs>
				<rect id="SVGID_5_" x="153.2" y="6.2" width="41.2" height="90.2"/>
			</defs>
			<clipPath id="SVGID_6_">
				<use xlink:href="#SVGID_5_"  overflow="visible"/>
			</clipPath>
			<path clip-path="url(#SVGID_6_)" fill="#89CB94" d="M183.5,10.7c0,0.6-0.5,1.1-1.1,1.1h-17.1c-0.6,0-1.1-0.5-1.1-1.1
				s0.5-1.1,1.1-1.1h17.1C183,9.6,183.5,10.1,183.5,10.7"/>
		</g>
	</g>
	<g>
		<g>
			<defs>
				<rect id="SVGID_7_" x="153.2" y="6.2" width="41.2" height="90.2"/>
			</defs>
			<clipPath id="SVGID_8_">
				<use xlink:href="#SVGID_7_"  overflow="visible"/>
			</clipPath>
			<path clip-path="url(#SVGID_8_)" fill="#74C380" d="M180.8,19c0,0,13.2,0.4,13.2,13.2v51.5c0,0,1.6,12.5-12.5,12.5h-15.3
				c-14,0-12.5-12.5-12.5-12.5V32.3C153.7,19.5,167,19,167,19H180.8z"/>
		</g>
	</g>
	<g>
		<g>
			<defs>
				<rect id="SVGID_9_" x="153.2" y="6.2" width="41.2" height="90.2"/>
			</defs>
			<clipPath id="SVGID_10_">
				<use xlink:href="#SVGID_9_"  overflow="visible"/>
			</clipPath>
			<path clip-path="url(#SVGID_10_)" fill="#89CB94" d="M194,83.8V32.3c0-12.8-13.2-13.2-13.2-13.2h-7.4v77.2h8.1
				C195.6,96.3,194,83.8,194,83.8"/>
		</g>
	</g>
</g>
<rect x="153.2" y="42.4" fill="#FFFFFF" width="41.2" height="33.4"/>
<rect x="173.4" y="42.4" fill="#E1F4FD" width="21.1" height="33.4"/>
</svg>
